<?xml version="1.0" standalone="no"?>
<svg viewBox="0 0 200 200" xmlns="http://www.w3.org/2000/svg">
  <path fill="#FF0066" d="M47.8,-75C60.6,-66.3,68.4,-50.6,73.2,-35C77.9,-19.4,79.5,-3.8,77.4,11.2C75.3,26.2,69.6,40.8,60,52.1C50.4,63.4,36.8,71.4,22.1,76.1C7.3,80.8,-8.6,82.3,-23.3,78.4C-38.1,74.6,-51.6,65.5,-62.4,53.7C-73.2,41.9,-81.4,27.4,-83.7,12C-85.9,-3.4,-82.2,-19.6,-74.7,-33.3C-67.1,-46.9,-55.8,-58,-42.7,-66.6C-29.6,-75.1,-14.8,-81.1,1.4,-83.2C17.6,-85.4,35.1,-83.7,47.8,-75Z" transform="translate(100 100)" />
</svg>
